# xmcd CD database file
#
# Track frame offsets:
#	150
#	19969
#	38109
#	52627
#	73864
#	97116
#	127924
#	141460
#	165768
#	198027
#	215860
#
# Disc length: 3235 seconds
#
# Revision: 1
# Processed by: cddbd v1.5.2PL0 Copyright (c) Steve Scherf et al.
# Submitted via: CDex 1.51
#
DISCID=980ca10b
DTITLE=Albert Lee and Hogan's Heroes - Live at the New Morning Disc 2
DYEAR=2003
DGENRE=Country
TTITLE0=Just Because
TTITLE1=Evangelina
TTITLE2=Pink Bedroom
TTITLE3=If You See Me Getting Smaller
TTITLE4=Country Comfort
TTITLE5=One Way Rider
TTITLE6=Singin' The Blues
TTITLE7='Til I Gain Control Again
TTITLE8=Country Boy
TTITLE9=So Sad
TTITLE10=Tear It Up
EXTD=Rip-roaring rock n,roll and cutting edge countery with some of the most dazzling guitar work ever recorded YEAR: 2003
EXTT0=
EXTT1=
EXTT2=
EXTT3=
EXTT4=
EXTT5=
EXTT6=
EXTT7=
EXTT8=
EXTT9=
EXTT10=
PLAYORDER=
